<svg xmlns="http://www.w3.org/2000/svg" xmlns:xlink="http://www.w3.org/1999/xlink" width="1024" zoomAndPan="magnify" viewBox="0 0 768 60" height="80" preserveAspectRatio="xMidYMid meet" version="1.0"><defs><clipPath id="0f1eb43060"><path d="M 6 9.382812 L 762 9.382812 L 762 50.609375 L 6 50.609375 Z M 6 9.382812 " clip-rule="nonzero"/></clipPath></defs><g clip-path="url(#0f1eb43060)"><path fill="#eab308" d="M 761.960938 30.675781 C 762.113281 27.652344 761.660156 24.628906 760.449219 21.757812 C 758.183594 16.164062 753.191406 11.777344 747.449219 10.117188 C 746.84375 9.964844 746.085938 9.8125 745.332031 9.664062 C 744.574219 9.511719 743.667969 9.359375 743.0625 9.359375 L 740.796875 9.359375 C 740.191406 9.511719 739.433594 9.511719 738.679688 9.664062 C 735.808594 10.117188 733.085938 11.324219 730.816406 13.140625 C 728.550781 14.953125 726.886719 17.222656 725.675781 19.640625 C 725.074219 20.851562 724.621094 22.058594 724.316406 23.421875 C 724.164062 24.023438 724.015625 24.78125 724.015625 25.386719 C 723.863281 25.992188 723.863281 26.59375 723.863281 27.199219 C 723.863281 29.921875 724.621094 32.339844 725.828125 34.457031 C 727.039062 36.421875 728.851562 38.234375 730.96875 39.144531 C 731.421875 39.292969 732.027344 39.597656 732.480469 39.75 C 732.933594 40.050781 733.539062 40.050781 733.992188 40.203125 C 735.050781 40.351562 736.109375 40.503906 737.015625 40.503906 C 738.980469 40.503906 741.097656 39.898438 742.457031 38.539062 C 743.820312 37.179688 744.574219 35.515625 744.726562 34.003906 C 744.878906 32.492188 744.574219 31.128906 743.972656 29.921875 C 743.515625 28.710938 742.609375 27.957031 741.855469 27.351562 C 741.402344 27.199219 740.945312 26.898438 740.644531 26.746094 C 740.492188 26.746094 740.191406 26.59375 740.039062 26.59375 C 739.433594 26.445312 738.832031 26.292969 738.226562 26.292969 L 737.773438 26.292969 C 734.898438 26.445312 732.480469 29.015625 732.480469 32.039062 C 732.480469 35.363281 735.203125 37.933594 738.378906 37.933594 C 741.097656 37.933594 743.367188 36.121094 743.972656 33.550781 L 743.972656 33.851562 C 743.667969 35.210938 743.0625 36.574219 741.855469 37.480469 C 740.644531 38.386719 738.980469 38.839844 737.320312 38.691406 C 736.261719 38.539062 735.503906 38.539062 734.597656 38.234375 C 734.144531 38.085938 733.691406 37.933594 733.238281 37.78125 C 732.785156 37.632812 732.328125 37.480469 731.875 37.179688 C 730.214844 36.269531 728.703125 34.910156 727.792969 33.097656 C 727.339844 32.1875 727.039062 31.28125 726.734375 30.222656 C 726.585938 29.164062 726.433594 27.957031 726.433594 27.046875 C 726.433594 26.59375 726.433594 25.839844 726.585938 25.386719 C 726.585938 24.933594 726.734375 24.476562 726.886719 23.875 C 727.1875 22.816406 727.644531 21.757812 728.097656 20.699219 C 729.15625 18.734375 730.667969 16.917969 732.480469 15.40625 C 734.296875 13.894531 736.5625 12.988281 738.980469 12.6875 C 739.585938 12.535156 740.191406 12.535156 740.796875 12.535156 L 742.761719 12.535156 C 743.515625 12.6875 743.972656 12.6875 744.574219 12.835938 L 746.390625 13.289062 C 751.226562 14.652344 755.308594 18.28125 757.273438 22.964844 C 758.332031 25.386719 758.785156 27.957031 758.636719 30.375 L 758.636719 31.433594 C 758.636719 31.734375 758.484375 32.039062 758.484375 32.339844 L 758.332031 33.246094 L 758.03125 34.152344 C 757.730469 35.363281 757.273438 36.574219 756.671875 37.632812 C 754.402344 42.167969 750.320312 45.34375 745.632812 46.550781 C 744.574219 46.855469 743.367188 47.003906 742.15625 47.003906 C 740.945312 47.15625 739.585938 47.15625 738.378906 47.15625 C 736.863281 47.308594 735.351562 47.308594 733.992188 47.308594 L 34.007812 47.308594 C 32.648438 47.308594 31.136719 47.308594 29.621094 47.15625 C 28.414062 47.15625 27.054688 47.15625 25.84375 47.003906 C 24.632812 47.003906 23.425781 46.855469 22.367188 46.550781 C 17.679688 45.34375 13.597656 42.316406 11.328125 37.78125 C 10.726562 36.722656 10.269531 35.515625 9.96875 34.304688 L 9.667969 33.398438 L 9.515625 32.492188 C 9.515625 32.1875 9.363281 31.886719 9.363281 31.585938 L 9.363281 30.527344 C 9.214844 28.105469 9.667969 25.535156 10.726562 23.117188 C 12.691406 18.429688 16.773438 14.800781 21.609375 13.441406 L 23.425781 12.988281 C 24.027344 12.835938 24.484375 12.835938 25.238281 12.6875 L 27.203125 12.6875 C 27.808594 12.6875 28.414062 12.6875 29.019531 12.835938 C 31.4375 13.140625 33.703125 14.046875 35.519531 15.558594 C 37.332031 17.070312 38.84375 18.882812 39.902344 20.851562 C 40.355469 21.910156 40.8125 22.964844 41.113281 24.023438 C 41.265625 24.628906 41.414062 25.082031 41.414062 25.535156 C 41.566406 25.992188 41.566406 26.746094 41.566406 27.199219 C 41.566406 28.105469 41.414062 29.316406 41.265625 30.375 C 40.960938 31.433594 40.660156 32.339844 40.207031 33.246094 C 39.296875 35.0625 37.785156 36.421875 36.125 37.328125 C 35.671875 37.632812 35.214844 37.78125 34.761719 37.933594 C 34.308594 38.085938 33.855469 38.234375 33.402344 38.386719 C 32.496094 38.691406 31.738281 38.691406 30.679688 38.839844 C 29.019531 38.992188 27.355469 38.539062 26.144531 37.632812 C 24.9375 36.722656 24.332031 35.363281 24.027344 34.003906 L 24.027344 33.699219 C 24.632812 36.269531 26.902344 38.085938 29.621094 38.085938 C 32.796875 38.085938 35.519531 35.515625 35.519531 32.1875 C 35.519531 29.164062 33.101562 26.59375 30.226562 26.445312 L 29.773438 26.445312 C 29.167969 26.445312 28.566406 26.59375 27.960938 26.746094 C 27.808594 26.746094 27.507812 26.898438 27.355469 26.898438 C 27.054688 27.046875 26.597656 27.351562 26.144531 27.503906 C 25.390625 28.105469 24.484375 28.863281 24.027344 30.074219 C 23.425781 31.28125 23.121094 32.640625 23.273438 34.15625 C 23.425781 35.667969 24.179688 37.328125 25.539062 38.691406 C 26.902344 40.050781 29.019531 40.65625 30.984375 40.65625 C 31.890625 40.65625 32.949219 40.503906 34.007812 40.351562 C 34.460938 40.203125 35.066406 40.203125 35.519531 39.898438 C 35.972656 39.75 36.578125 39.445312 37.03125 39.292969 C 39.148438 38.386719 40.960938 36.574219 42.171875 34.609375 C 43.378906 32.492188 44.136719 30.074219 44.136719 27.351562 C 44.136719 26.746094 44.136719 26.140625 43.984375 25.535156 C 43.984375 24.933594 43.835938 24.175781 43.683594 23.570312 C 43.378906 22.210938 42.925781 21 42.324219 19.792969 C 41.113281 17.371094 39.449219 15.105469 37.183594 13.289062 C 34.914062 11.476562 32.191406 10.265625 29.320312 9.8125 C 28.566406 9.664062 27.808594 9.664062 27.203125 9.511719 L 24.9375 9.511719 C 24.332031 9.511719 23.425781 9.664062 22.667969 9.8125 C 21.914062 9.964844 21.15625 10.117188 20.550781 10.265625 C 14.808594 11.929688 9.816406 16.316406 7.550781 21.910156 C 6.339844 24.78125 5.886719 27.804688 6.039062 30.828125 L 6.1875 31.734375 C 6.1875 32.039062 6.339844 32.492188 6.339844 32.945312 L 6.492188 34.15625 L 6.792969 35.210938 C 7.097656 36.722656 7.699219 38.085938 8.457031 39.445312 C 11.179688 44.738281 16.320312 48.515625 21.761719 49.726562 C 23.121094 50.027344 24.484375 50.179688 25.84375 50.332031 L 28.109375 50.332031 L 28.109375 50.632812 L 739.738281 50.632812 L 739.738281 50.332031 L 742.003906 50.332031 C 743.367188 50.179688 744.726562 50.027344 746.085938 49.726562 C 751.53125 48.515625 756.671875 44.738281 759.390625 39.445312 C 760.148438 38.085938 760.753906 36.722656 761.054688 35.210938 L 761.355469 34.152344 L 761.507812 32.945312 C 761.507812 32.492188 761.660156 32.039062 761.660156 31.734375 Z M 761.960938 30.675781 " fill-opacity="1" fill-rule="nonzero"/></g></svg>